<?xml version="1.0" encoding="UTF-8"?>
<svg width="32px" height="32px" viewBox="0 0 32 32" version="1.1" xmlns="http://www.w3.org/2000/svg" xmlns:xlink="http://www.w3.org/1999/xlink">
    <!-- Generator: Sketch 51.2 (57519) - http://www.bohemiancoding.com/sketch -->
    <title>icon_twitter</title>
    <desc>Created with Sketch.</desc>
    <defs></defs>
    <g id="Designsystem" stroke="none" stroke-width="1" fill="none" fill-rule="evenodd">
        <g id="footer_mobile" transform="translate(-20.000000, -460.000000)" fill="#1C1C1B">
            <path d="M20,460 L52,460 L52,492 L20,492 L20,460 Z M42.364076,473.236644 C43.0035233,472.774267 43.5615429,472.195834 44,471.540031 C43.4141623,471.799773 42.7806102,471.976619 42.1153713,472.055831 C42.7933218,471.648718 43.3128382,471.00581 43.5597006,470.237636 C42.9261485,470.617118 42.2205642,470.887913 41.4724237,471.033442 C40.8736903,470.397903 40.0225676,470 39.0774899,470 C37.2647093,470 35.7945884,471.47003 35.7945884,473.280856 C35.7945884,473.540598 35.8222222,473.789287 35.8793322,474.030608 C33.1527922,473.892447 30.7304088,472.586368 29.1127231,470.600538 C28.8327001,471.085022 28.6687392,471.648718 28.6687392,472.249256 C28.6687392,473.3877 29.2508923,474.395352 30.1316753,474.981153 C29.5935521,474.964574 29.0850892,474.819045 28.6447899,474.572198 C28.6411054,474.585093 28.6411054,474.59983 28.6411054,474.614567 C28.6411054,476.204336 29.7740933,477.530679 31.2757168,477.830948 C31.0010363,477.906476 30.7081174,477.945161 30.4115141,477.945161 C30.1978123,477.945161 29.993506,477.926739 29.7945423,477.886212 C30.2125504,479.192291 31.4247553,480.139153 32.8598733,480.166785 C31.7362809,481.049171 30.3212435,481.57234 28.7813011,481.57234 C28.5176742,481.57234 28.2560737,481.55576 28,481.526286 C29.4516983,482.460252 31.1778929,483 33.0312032,483 C39.0719632,483 42.3734715,478.000425 42.3734715,473.664022 C42.3734715,473.520334 42.3696028,473.376647 42.364076,473.236644 Z" id="icon_twitter"></path>
        </g>
    </g>
</svg>