<svg xmlns="http://www.w3.org/2000/svg" xmlns:xlink="http://www.w3.org/1999/xlink" width="32" height="32" viewBox="0 0 32 32">
    <defs>
        <path id="a" d="M0 .025h15.975V16H0z"/>
    </defs>
    <g fill="none" fill-rule="evenodd">
        <path fill="#1C1C1B" d="M0 0h32v32H0z"/>
        <g transform="translate(8 8)">
            <mask id="b" fill="#fff">
                <use xlink:href="#a"/>
            </mask>
            <path fill="#FFD500" d="M7.987.025c-2.169 0-2.44.01-3.293.048-.85.04-1.43.174-1.939.372-.525.204-.97.477-1.414.92-.444.445-.718.89-.922 1.416-.197.508-.332 1.088-.37 1.938C.008 5.571 0 5.843 0 8.013c0 2.169.01 2.44.048 3.293.039.85.174 1.43.371 1.939.204.525.478.97.922 1.414.444.444.89.718 1.414.922.508.197 1.089.332 1.94.371.851.039 1.123.048 3.292.048 2.17 0 2.442-.01 3.294-.048.85-.039 1.43-.174 1.938-.371.526-.204.971-.478 1.415-.922.444-.444.717-.89.921-1.414.198-.508.333-1.089.372-1.94.039-.851.048-1.123.048-3.292 0-2.17-.01-2.442-.048-3.294-.04-.85-.174-1.43-.372-1.938a3.915 3.915 0 0 0-.92-1.415 3.914 3.914 0 0 0-1.416-.921c-.508-.198-1.088-.333-1.938-.372-.852-.039-1.124-.048-3.294-.048m0 1.44c2.133 0 2.386.007 3.228.046.779.035 1.202.166 1.483.275.373.145.64.318.919.597.28.28.452.546.597.919.11.281.24.704.275 1.483.038.842.047 1.095.047 3.228 0 2.132-.009 2.385-.047 3.227-.035.779-.166 1.202-.275 1.483a2.474 2.474 0 0 1-.597.919c-.28.28-.546.452-.919.597-.281.11-.704.24-1.483.275-.842.039-1.095.047-3.228.047-2.132 0-2.385-.008-3.227-.047-.779-.035-1.202-.165-1.483-.275a2.474 2.474 0 0 1-.919-.597 2.476 2.476 0 0 1-.597-.919c-.11-.281-.24-.704-.275-1.483-.039-.842-.047-1.095-.047-3.227 0-2.133.008-2.386.047-3.228.035-.779.165-1.202.275-1.483.145-.373.318-.639.597-.919.28-.279.546-.452.919-.597.281-.11.704-.24 1.483-.275.842-.039 1.095-.047 3.227-.047" mask="url(#b)"/>
        </g>
        <path fill="#FFD500" d="M16 18.657a2.657 2.657 0 1 1 0-5.314 2.657 2.657 0 0 1 0 5.314m0-6.75a4.093 4.093 0 1 0 0 8.186 4.093 4.093 0 0 0 0-8.186M21.21 11.72a.93.93 0 1 1-1.861 0 .93.93 0 0 1 1.86 0"/>
    </g>
</svg>
