<svg xmlns="http://www.w3.org/2000/svg" width="32" height="32" viewBox="0 0 32 32">
    <g fill="none" fill-rule="evenodd">
        <path fill="#1C1C1B" d="M0 0h32v32H0z"/>
        <g fill="#FFD500">
            <path d="M11.812 9.906a1.907 1.907 0 1 1-3.814-.002 1.907 1.907 0 0 1 3.814.002M8.235 23.753h3.287V13.176H8.235zM23.896 17.981v5.8h-3.284v-5.143c0-1.226-.024-2.805-1.708-2.805-1.71 0-1.972 1.336-1.972 2.718v5.23h-3.285V13.205H16.8v1.444h.045c.44-.83 1.513-1.708 3.11-1.708 3.328 0 3.941 2.19 3.941 5.04"/>
        </g>
    </g>
</svg>
